<svg width="180" height="180" viewBox="0 0 180 180" xmlns="http://www.w3.org/2000/svg"><defs><linearGradient id="g"><stop offset="0" stop-color="#A583E8"/><stop offset="1" stop-color="#4A2A8A"/></linearGradient><clipPath id="c"><rect width="180" height="180" rx="40"/></clipPath></defs><rect width="180" height="180" rx="40" fill="url(#g)"/><g transform="translate(12,12) scale(0.78)"><rect x="22" y="22" width="156" height="156" rx="14" stroke="#fff" stroke-width="6" fill="none"/><rect x="32" y="32" width="136" height="136" rx="10" stroke="#fff" stroke-width="2" fill="none" opacity="0.55"/><line x1="42" y1="28" x2="42" y2="34" stroke="#fff" stroke-width="1.5" opacity="0.6"/><line x1="61" y1="28" x2="61" y2="34" stroke="#fff" stroke-width="1.5" opacity="0.6"/><line x1="80" y1="28" x2="80" y2="34" stroke="#fff" stroke-width="1.5" opacity="0.6"/><line x1="99" y1="28" x2="99" y2="34" stroke="#fff" stroke-width="1.5" opacity="0.6"/><line x1="118" y1="28" x2="118" y2="34" stroke="#fff" stroke-width="1.5" opacity="0.6"/><line x1="137" y1="28" x2="137" y2="34" stroke="#fff" stroke-width="1.5" opacity="0.6"/><line x1="156" y1="28" x2="156" y2="34" stroke="#fff" stroke-width="1.5" opacity="0.6"/><line x1="172" y1="42" x2="166" y2="42" stroke="#fff" stroke-width="1.5" opacity="0.6"/><line x1="172" y1="61" x2="166" y2="61" stroke="#fff" stroke-width="1.5" opacity="0.6"/><line x1="172" y1="80" x2="166" y2="80" stroke="#fff" stroke-width="1.5" opacity="0.6"/><line x1="172" y1="99" x2="166" y2="99" stroke="#fff" stroke-width="1.5" opacity="0.6"/><line x1="172" y1="118" x2="166" y2="118" stroke="#fff" stroke-width="1.5" opacity="0.6"/><line x1="172" y1="137" x2="166" y2="137" stroke="#fff" stroke-width="1.5" opacity="0.6"/><line x1="172" y1="156" x2="166" y2="156" stroke="#fff" stroke-width="1.5" opacity="0.6"/><line x1="158" y1="172" x2="158" y2="166" stroke="#fff" stroke-width="1.5" opacity="0.6"/><line x1="139" y1="172" x2="139" y2="166" stroke="#fff" stroke-width="1.5" opacity="0.6"/><line x1="120" y1="172" x2="120" y2="166" stroke="#fff" stroke-width="1.5" opacity="0.6"/><line x1="101" y1="172" x2="101" y2="166" stroke="#fff" stroke-width="1.5" opacity="0.6"/><line x1="82" y1="172" x2="82" y2="166" stroke="#fff" stroke-width="1.5" opacity="0.6"/><line x1="63" y1="172" x2="63" y2="166" stroke="#fff" stroke-width="1.5" opacity="0.6"/><line x1="44" y1="172" x2="44" y2="166" stroke="#fff" stroke-width="1.5" opacity="0.6"/><line x1="28" y1="158" x2="34" y2="158" stroke="#fff" stroke-width="1.5" opacity="0.6"/><line x1="28" y1="139" x2="34" y2="139" stroke="#fff" stroke-width="1.5" opacity="0.6"/><line x1="28" y1="120" x2="34" y2="120" stroke="#fff" stroke-width="1.5" opacity="0.6"/><line x1="28" y1="101" x2="34" y2="101" stroke="#fff" stroke-width="1.5" opacity="0.6"/><line x1="28" y1="82" x2="34" y2="82" stroke="#fff" stroke-width="1.5" opacity="0.6"/><line x1="28" y1="63" x2="34" y2="63" stroke="#fff" stroke-width="1.5" opacity="0.6"/><line x1="28" y1="44" x2="34" y2="44" stroke="#fff" stroke-width="1.5" opacity="0.6"/><text x="100" y="48" text-anchor="middle" dominant-baseline="central" font-family="Inter,sans-serif" font-size="12" fill="#fff" opacity="0.7">XII</text><text x="158" y="100" text-anchor="middle" dominant-baseline="central" font-family="Inter,sans-serif" font-size="12" fill="#fff" opacity="0.7">III</text><text x="100" y="158" text-anchor="middle" dominant-baseline="central" font-family="Inter,sans-serif" font-size="12" fill="#fff" opacity="0.7">VI</text><text x="42" y="100" text-anchor="middle" dominant-baseline="central" font-family="Inter,sans-serif" font-size="12" fill="#fff" opacity="0.7">IX</text><rect x="62" y="62" width="76" height="76" rx="10" fill="#fff"/><text x="100" y="122" text-anchor="middle" font-family="Inter,sans-serif" font-size="56" fill="#4A2A8A" font-weight="700">j</text><rect x="178" y="90" width="6" height="10" rx="1" fill="#fff"/><circle cx="181" cy="90" r="2.5" fill="#fff"/></g></svg>